<svg width="64" height="64" viewBox="0 0 64 64" fill="none" xmlns="http://www.w3.org/2000/svg">
<g clip-path="url(#clip0_19_1637)">
<path d="M46.5938 18.5938L49.4062 21.4062L26 44.8125L14.5938 33.4062L17.4062 30.5938L26 39.1875L46.5938 18.5938ZM32 0C34.9375 0 37.7708 0.375 40.5 1.125C43.2292 1.875 45.7812 2.94792 48.1562 4.34375C50.5312 5.73958 52.6875 7.40625 54.625 9.34375C56.5625 11.2812 58.2292 13.4479 59.625 15.8438C61.0208 18.2396 62.0938 20.7917 62.8438 23.5C63.5938 26.2083 63.9792 29.0417 64 32C64 34.9375 63.625 37.7708 62.875 40.5C62.125 43.2292 61.0521 45.7812 59.6562 48.1562C58.2604 50.5312 56.5938 52.6875 54.6562 54.625C52.7188 56.5625 50.5521 58.2292 48.1562 59.625C45.7604 61.0208 43.2083 62.0938 40.5 62.8438C37.7917 63.5938 34.9583 63.9792 32 64C29.0625 64 26.2292 63.625 23.5 62.875C20.7708 62.125 18.2188 61.0521 15.8438 59.6562C13.4688 58.2604 11.3125 56.5938 9.375 54.6562C7.4375 52.7188 5.77083 50.5521 4.375 48.1562C2.97917 45.7604 1.90625 43.2188 1.15625 40.5312C0.40625 37.8438 0.0208333 35 0 32C0 29.0625 0.375 26.2292 1.125 23.5C1.875 20.7708 2.94792 18.2188 4.34375 15.8438C5.73958 13.4688 7.40625 11.3125 9.34375 9.375C11.2812 7.4375 13.4479 5.77083 15.8438 4.375C18.2396 2.97917 20.7812 1.90625 23.4688 1.15625C26.1562 0.40625 29 0.0208333 32 0ZM32 60C34.5625 60 37.0312 59.6667 39.4062 59C41.7812 58.3333 44.0104 57.3958 46.0938 56.1875C48.1771 54.9792 50.0729 53.5104 51.7812 51.7812C53.4896 50.0521 54.9479 48.1667 56.1562 46.125C57.3646 44.0833 58.3125 41.8542 59 39.4375C59.6875 37.0208 60.0208 34.5417 60 32C60 29.4375 59.6667 26.9688 59 24.5938C58.3333 22.2188 57.3958 19.9896 56.1875 17.9062C54.9792 15.8229 53.5104 13.9271 51.7812 12.2188C50.0521 10.5104 48.1667 9.05208 46.125 7.84375C44.0833 6.63542 41.8542 5.6875 39.4375 5C37.0208 4.3125 34.5417 3.97917 32 4C29.4375 4 26.9688 4.33333 24.5938 5C22.2188 5.66667 19.9896 6.60417 17.9062 7.8125C15.8229 9.02083 13.9271 10.4896 12.2188 12.2188C10.5104 13.9479 9.05208 15.8333 7.84375 17.875C6.63542 19.9167 5.6875 22.1458 5 24.5625C4.3125 26.9792 3.97917 29.4583 4 32C4 34.5625 4.33333 37.0312 5 39.4062C5.66667 41.7812 6.60417 44.0104 7.8125 46.0938C9.02083 48.1771 10.4896 50.0729 12.2188 51.7812C13.9479 53.4896 15.8333 54.9479 17.875 56.1562C19.9167 57.3646 22.1458 58.3125 24.5625 59C26.9792 59.6875 29.4583 60.0208 32 60Z" fill="white"/>
</g>
<defs>
<clipPath id="clip0_19_1637">
<rect width="64" height="64" fill="white"/>
</clipPath>
</defs>
</svg>
