<svg width="13" height="13" viewBox="0 0 13 13" fill="none" xmlns="http://www.w3.org/2000/svg">
<path d="M9.83008 3.83203V2.33203C9.83008 2.19942 9.7774 2.07225 9.68363 1.97848C9.58986 1.88471 9.46269 1.83203 9.33008 1.83203H2.83008C2.56486 1.83203 2.31051 1.93739 2.12297 2.12492C1.93543 2.31246 1.83008 2.56681 1.83008 2.83203C1.83008 3.09725 1.93543 3.3516 2.12297 3.53914C2.31051 3.72667 2.56486 3.83203 2.83008 3.83203H10.3301C10.4627 3.83203 10.5899 3.88471 10.6836 3.97848C10.7774 4.07225 10.8301 4.19942 10.8301 4.33203V6.33203M10.8301 6.33203H9.33008C9.06486 6.33203 8.81051 6.43739 8.62297 6.62492C8.43544 6.81246 8.33008 7.06681 8.33008 7.33203C8.33008 7.59725 8.43544 7.8516 8.62297 8.03914C8.81051 8.22667 9.06486 8.33203 9.33008 8.33203H10.8301C10.9627 8.33203 11.0899 8.27935 11.1836 8.18558C11.2774 8.09182 11.3301 7.96464 11.3301 7.83203V6.83203C11.3301 6.69942 11.2774 6.57225 11.1836 6.47848C11.0899 6.38471 10.9627 6.33203 10.8301 6.33203Z" stroke="#F8FAFC" stroke-linecap="round" stroke-linejoin="round"/>
<path d="M1.83008 2.83203V9.83203C1.83008 10.0972 1.93543 10.3516 2.12297 10.5391C2.31051 10.7267 2.56486 10.832 2.83008 10.832H10.3301C10.4627 10.832 10.5899 10.7794 10.6836 10.6856C10.7774 10.5918 10.8301 10.4646 10.8301 10.332V8.33203" stroke="#F8FAFC" stroke-linecap="round" stroke-linejoin="round"/>
</svg>
